<?xml version="1.0" encoding="UTF-8" standalone="no"?>
<svg
   class="icon"
   height="537.33331"
   viewBox="0 0 540.96429 1074.6666"
   version="1.1"
   id="svg2"
   inkscape:version="1.1.1 (3bf5ae0d25, 2021-09-20)"
   sodipodi:docname="logo-blue-uptime.svg"
   width="540.96429"
   inkscape:export-filename="C:\Users\q001\Documents\QMETHODS\QGIT\versio.io\www\img\logo\favicon-16x16.png"
   inkscape:export-xdpi="3.3436656"
   inkscape:export-ydpi="3.3436656"
   xmlns:inkscape="http://www.inkscape.org/namespaces/inkscape"
   xmlns:sodipodi="http://sodipodi.sourceforge.net/DTD/sodipodi-0.dtd"
   xmlns="http://www.w3.org/2000/svg"
   xmlns:svg="http://www.w3.org/2000/svg"
   xmlns:rdf="http://www.w3.org/1999/02/22-rdf-syntax-ns#"
   xmlns:cc="http://creativecommons.org/ns#"
   xmlns:dc="http://purl.org/dc/elements/1.1/">
  <metadata
     id="metadata10">
    <rdf:RDF>
      <cc:Work
         rdf:about="">
        <dc:format>image/svg+xml</dc:format>
        <dc:type
           rdf:resource="http://purl.org/dc/dcmitype/StillImage" />
      </cc:Work>
    </rdf:RDF>
  </metadata>
  <defs
     id="defs8">
    <inkscape:path-effect
       effect="spiro"
       id="path-effect914"
       is_visible="true"
       lpeversion="1" />
    <inkscape:path-effect
       lpeversion="1"
       is_visible="true"
       id="path-effect906"
       effect="spiro" />
    <inkscape:path-effect
       lpeversion="1"
       is_visible="true"
       id="path-effect902"
       effect="spiro" />
    <inkscape:path-effect
       lpeversion="1"
       is_visible="true"
       id="path-effect884"
       effect="spiro" />
    <inkscape:path-effect
       lpeversion="1"
       is_visible="true"
       id="path-effect57"
       effect="spiro" />
    <inkscape:path-effect
       effect="spiro"
       id="path-effect68"
       is_visible="true"
       lpeversion="1" />
    <inkscape:path-effect
       effect="spiro"
       id="path-effect64"
       is_visible="true"
       lpeversion="1" />
    <inkscape:path-effect
       effect="spiro"
       id="path-effect60"
       is_visible="true"
       lpeversion="1" />
    <inkscape:path-effect
       effect="spiro"
       id="path-effect56"
       is_visible="true"
       lpeversion="1" />
    <inkscape:path-effect
       effect="bspline"
       id="path-effect50"
       is_visible="true"
       lpeversion="1"
       weight="33.333333"
       steps="2"
       helper_size="0"
       apply_no_weight="true"
       apply_with_weight="true"
       only_selected="false" />
    <inkscape:path-effect
       effect="spiro"
       id="path-effect1114"
       is_visible="true"
       lpeversion="1" />
    <inkscape:path-effect
       effect="spiro"
       id="path-effect1112"
       is_visible="true"
       lpeversion="1" />
    <inkscape:path-effect
       effect="spiro"
       id="path-effect1110"
       is_visible="true"
       lpeversion="1" />
    <inkscape:path-effect
       effect="spiro"
       id="path-effect1108"
       is_visible="true"
       lpeversion="1" />
    <inkscape:path-effect
       effect="spiro"
       id="path-effect1053"
       is_visible="true"
       lpeversion="1" />
    <inkscape:path-effect
       effect="spiro"
       id="path-effect1007"
       is_visible="true"
       lpeversion="1" />
    <inkscape:path-effect
       lpeversion="1"
       is_visible="true"
       id="path-effect982"
       effect="spiro" />
    <inkscape:path-effect
       effect="spiro"
       id="path-effect970"
       is_visible="true"
       lpeversion="1" />
    <inkscape:path-effect
       lpeversion="1"
       is_visible="true"
       id="path-effect895"
       effect="spiro" />
    <inkscape:path-effect
       lpeversion="1"
       is_visible="true"
       id="path-effect891"
       effect="spiro" />
    <inkscape:path-effect
       lpeversion="1"
       is_visible="true"
       id="path-effect887"
       effect="spiro" />
    <inkscape:path-effect
       lpeversion="1"
       is_visible="true"
       id="path-effect883"
       effect="spiro" />
    <inkscape:path-effect
       lpeversion="1"
       is_visible="true"
       id="path-effect875"
       effect="spiro" />
    <inkscape:path-effect
       lpeversion="1"
       is_visible="true"
       id="path-effect871"
       effect="spiro" />
    <inkscape:path-effect
       lpeversion="1"
       is_visible="true"
       id="path-effect867"
       effect="spiro" />
    <inkscape:path-effect
       lpeversion="1"
       is_visible="true"
       id="path-effect861"
       effect="spiro" />
    <inkscape:path-effect
       lpeversion="1"
       is_visible="true"
       id="path-effect855"
       effect="spiro" />
    <inkscape:path-effect
       lpeversion="1"
       is_visible="true"
       id="path-effect851"
       effect="spiro" />
    <inkscape:path-effect
       lpeversion="1"
       is_visible="true"
       id="path-effect837"
       effect="spiro" />
    <inkscape:path-effect
       effect="spiro"
       id="path-effect836"
       is_visible="true"
       lpeversion="1" />
    <inkscape:path-effect
       effect="spiro"
       id="path-effect832"
       is_visible="true"
       lpeversion="1" />
  </defs>
  <sodipodi:namedview
     inkscape:object-nodes="false"
     inkscape:snap-others="true"
     showguides="false"
     pagecolor="#ffffff"
     bordercolor="#666666"
     borderopacity="1"
     objecttolerance="10"
     gridtolerance="10"
     guidetolerance="10"
     inkscape:pageopacity="0"
     inkscape:pageshadow="2"
     inkscape:window-width="1965"
     inkscape:window-height="1360"
     id="namedview6"
     showgrid="false"
     inkscape:zoom="0.92299108"
     inkscape:cx="28.169286"
     inkscape:cy="394.37001"
     inkscape:window-x="1699"
     inkscape:window-y="0"
     inkscape:window-maximized="0"
     inkscape:current-layer="svg2"
     inkscape:document-rotation="0"
     inkscape:pagecheckerboard="0" />
  <ellipse
     style="fill:#ffffff;stroke:#ffffff;stroke-width:33.7777"
     id="path2468"
     cx="270.96429"
     cy="537.33331"
     rx="524.07544"
     ry="520.44446" />
  <path
     sodipodi:nodetypes="sssssssssssssssssssssssssscccccccsaaasccccsssssccccsssscccsaassssssssssssssssssssssssssssssss"
     inkscape:original-d="m 190.50212,201.3753 c -2.36359,0.49921 -55.53301,20.65234 -92.56155,33.01331 -37.02855,12.36096 -10.64826,6.85436 -15.03613,9.52543 -4.38786,2.67108 -20.74632,14.87099 -31.122519,22.30349 -10.37621,7.43249 -24.79478,21.88782 -37.19521,32.82871 -12.4004398,10.9409 -35.580449,46.22144 -53.46316,69.10766 -17.88272,22.88621 -24.29896,62.71043 -36.36202,94.28414 -12.06306,31.57369 3.20705,110.93465 4.80754,166.39898 1.60049,55.46435 48.920901,90.55249 73.3783102,135.82571 24.4574098,45.27321 71.8621588,56.13661 107.7902188,84.20191 35.92801,28.06529 54.8249,20.05007 82.23428,30.0721 27.40948,10.02203 111.16601,-0.83333 166.74581,-1.253 55.58,-0.41966 70.8502,-31.40665 106.2721,-47.11298 35.422,-15.70631 63.2593,-62.98236 94.8857,-94.47653 31.6266,-31.49418 29.0159,-58.63862 43.521,-87.96093 14.505,-29.32231 11.9786,-55.79846 17.965,-83.7007 5.9863,-27.90225 0.1707,-25.55929 0.2531,-38.34194 0.082,-12.78265 -4.89,-36.58573 -7.3379,-54.88159 -2.448,-18.29587 -19.5656,-57.30206 -29.3513,-85.95611 -9.7859,-28.65405 -5.2272,-10.02203 -7.8439,-15.03606 -2.6167,-5.01402 -15.3484,-22.05087 -23.0256,-33.07932 -7.6773,-11.02844 -11.6373,-9.68789 -17.459,-14.53485 -5.8216,-4.84696 -13.4084,-3.08875 -21.2543,-4.76141 -7.5617,-1.61207 -29.557,10.87219 -19.1232,5.07187 11.924,-6.62895 -9.0557,6.76945 -12.2524,9.96418 -3.241,3.23891 -4.8791,7.21936 -6.5788,12.02884 l -5.3136,15.03605 -11.6393,32.32752 -14.9287,42.85276 -11.3863,32.82871 -36.1831,103.49817 -78.25957,219.19086 c -1.12932,4.368 -4.78976,8.07546 -6.8359,11.07233 -2.0985,3.12841 -5.36013,5.79162 -8.47734,7.89978 -8.74366,5.91347 -17.39087,9.74022 -27.03803,11.48222 -8.3866,1.51437 -17.32083,1.08314 -25.54912,-1.12401 -8.42909,-2.26099 -16.69412,-6.29788 -23.18188,-12.08723 -7.4189,-6.62011 -15.71298,-21.96832 -16.63421,-24.67618 L 181.33257,690.23426 157.54787,621.5696 116.0512,500.77996 96.56798,444.64537 72.56623,374.62697 c -0.91858,-2.67968 -1.89012,-4.90963 -1.91948,-7.40301 -0.2629,-22.3201 30.35141,-37.52923 38.84678,-48.42629 9.44439,-12.11439 -15.27828,-34.60024 14.55416,-0.5872 9.13584,10.41616 40.73589,30.18347 44.92988,44.9592 l 4.1099,14.47926 9.25721,30.67712 27.32709,93.47413 43.01487,143.0753 5.81967,19.79748 c 1.9392,6.59677 6.36619,6.3911 8.47281,9.22924 2.10651,2.83814 3.08421,-0.20561 5.69679,0.043 2.61267,0.24859 7.37042,-5.25604 8.60297,-9.27224 l 17.45898,-56.88642 19.9893,-63.65263 46.05113,-151.86414 23.7848,-77.93688 c 1.4405,-4.72041 0.3127,-0.84592 0.506,-1.25301 3.2625,-6.87106 5.885,-14.34835 10.9992,-20.00499 25.003,-27.65529 59.1473,-54.52041 92.2365,-63.69571 33.1447,-9.1907 94.719,19.54888 120.6947,30.32271 25.9755,10.77383 39.137,48.28445 58.7026,72.42367 19.5655,24.13922 20.2443,53.6306 30.3635,80.44289 10.1191,26.81228 11.6413,77.35413 17.4589,116.0282 5.8176,38.67408 -7.5888,82.36616 -11.3862,123.54625 -3.7975,41.18009 -27.9998,70.33733 -42.0028,105.503 -14.003,35.16566 -55.4957,69.33491 -83.2464,103.99937 -27.7509,34.66446 -21.7585,19.21473 -32.6407,28.8191 -10.8823,9.60438 -87.3773,49.28685 -131.0689,73.92727 -43.6917,24.64043 -121.11428,17.54407 -181.67457,26.31309 -60.56018,8.76904 -90.75085,-21.04846 -136.12938,-31.5757 C 55.997031,948.60178 18.046781,907.84138 -23.620628,882.19455 -65.288039,856.5477 -57.693139,848.11483 -74.732419,831.07196 -91.771699,814.0291 -133.26435,727.82639 -162.53335,676.20059 c -29.26902,-51.6258 -14.67364,-109.09293 -22.0135,-163.64239 -7.33985,-54.54945 31.20889,-114.94026 46.8103,-172.41341 15.60141,-57.47315 52.631981,-74.34294 78.944931,-111.51741 26.31297,-37.17446 86.20046,-63.65063 129.297659,-95.47894 43.0972,-31.82832 60.34932,-20.5055 90.45771,-30.94921 30.10839,-10.443704 41.2879,-7.641324 68.95032,-12.154144 27.6625,-4.51283 33.99227,-0.58273 44.02698,0 10.03482,0.58273 12.82218,5.18109 19.23018,7.76862 6.4081,2.587554 14.67769,14.536864 22.0135,21.802284 7.33579,7.26542 3.88186,18.04527 5.81969,27.0649 1.93782,9.01963 -8.17924,18.46293 -12.14541,27.81669 -3.96608,9.35377 -14.92667,9.10718 -22.51955,13.53246 -7.59289,4.42527 -6.23929,1.17147 -9.36206,1.7542 -3.12269,0.58273 -8.9383,1.00441 -13.41053,1.5036 -4.47212,0.49921 -11.46857,1.00442 -17.20595,1.50361 -5.73726,0.49919 -21.42099,3.00921 -32.13463,4.51081 -10.71354,1.50161 -21.36048,3.57384 -23.72417,4.07303 z"
     inkscape:path-effect="#path-effect906"
     id="path904"
     d="m 190.50212,201.3753 c -32.60046,4.88134 -64.23016,16.1625 -92.56155,33.01331 -5.099864,3.03327 -10.092425,6.24379 -15.03613,9.52543 -10.636105,7.06026 -21.05396,14.45504 -31.122519,22.30349 -13.05099,10.17325 -25.513233,21.10886 -37.19521,32.82871 -20.6180698,20.68491 -38.808714,43.84469 -53.46316,69.10766 -16.969662,29.2542 -29.132669,61.24607 -36.36202,94.28414 -11.980015,54.74856 -10.281145,112.42438 4.80754,166.39898 13.968487,49.96747 39.335713,96.67257 73.3783102,135.82571 30.0992198,34.61778 66.9331158,63.34404 107.7902188,84.20191 26.05929,13.30347 53.74006,23.42766 82.23428,30.0721 54.64733,12.74298 112.3443,12.50166 166.74581,-1.253 37.74831,-9.54413 73.8648,-25.53075 106.2721,-47.11298 37.38564,-24.89765 69.77663,-57.23255 94.8857,-94.47653 18.33836,-27.20107 32.79741,-56.95773 43.521,-87.96093 9.35444,-27.0448 15.90024,-55.15839 17.965,-83.7007 0.92278,-12.75616 0.9503,-25.57147 0.2531,-38.34194 -1.00712,-18.44727 -3.5264,-36.8043 -7.3379,-54.88159 -6.26213,-29.7002 -16.03226,-58.68122 -29.3513,-85.95611 -2.48088,-5.08037 -5.08428,-10.10155 -7.8439,-15.03606 -6.57078,-11.74929 -14.05608,-23.04096 -23.0256,-33.07932 -5.07347,-5.67804 -10.70819,-11.01252 -17.459,-14.53485 -6.50784,-3.39555 -13.91752,-4.99254 -21.2543,-4.76141 -6.65071,0.20952 -13.26559,1.91523 -19.1232,5.07187 -4.66107,2.51183 -8.82587,5.92763 -12.2524,9.96418 -2.97863,3.5089 -5.06096,7.68364 -6.5788,12.02884 -1.753,5.01842 -3.52422,10.03048 -5.3136,15.03605 -3.85527,10.78464 -7.79484,21.53903 -11.6393,32.32752 -5.07749,14.24865 -9.98876,28.55585 -14.9287,42.85276 -3.78258,10.94735 -7.58205,21.88887 -11.3863,32.82871 -12.00386,34.51935 -24.05547,69.02212 -36.1831,103.49817 -25.74434,73.18519 -51.83124,146.24988 -78.25957,219.19086 -1.71654,4.00064 -4.0284,7.74524 -6.8359,11.07233 -2.49637,2.95838 -5.37733,5.58164 -8.47734,7.89978 -7.916,5.91946 -17.29071,9.84123 -27.03803,11.48222 -8.47242,1.42636 -17.26045,1.13748 -25.54912,-1.12401 -8.46481,-2.30954 -16.3051,-6.63774 -23.18188,-12.08723 -3.95819,-3.13666 -7.60982,-6.71637 -10.41386,-10.91676 -2.80403,-4.20039 -4.61483,-8.97108 -6.22035,-13.75942 -10.40667,-31.03708 -20.94966,-62.02846 -31.62857,-92.97293 -7.90185,-22.89734 -15.8781,-45.76895 -23.7847,-68.66466 -13.8965,-40.24109 -27.57772,-80.55631 -41.49667,-120.78964 -6.47561,-18.71804 -13.00265,-37.41826 -19.48322,-56.13459 -8.072747,-23.31465 -16.073382,-46.65426 -24.00175,-70.0184 -0.82045,-2.41779 -1.535765,-4.87881 -1.91948,-7.40301 -1.722594,-11.33178 2.060287,-23.22371 9.435536,-31.99766 7.375249,-8.77396 18.118981,-14.46359 29.411244,-16.42863 4.79729,-0.83481 9.70492,-1.02967 14.55416,-0.5872 11.39101,1.03937 22.52262,5.96713 30.33237,14.32436 3.90488,4.17861 6.9626,9.10829 9.257,14.34705 2.29441,5.23875 3.82146,10.77405 5.34051,16.28779 1.33259,4.83693 2.70261,9.66354 4.1099,14.47926 2.99605,10.2524 6.16077,20.45459 9.25721,30.67712 9.41075,31.06845 18.19059,62.32393 27.32709,93.47413 14.0163,47.78755 28.87136,95.32524 43.01487,143.0753 1.95348,6.59516 3.89337,13.19433 5.81967,19.79748 0.61953,2.1237 1.38367,4.26703 2.83744,5.93451 1.45377,1.66747 3.48248,2.78583 5.63537,3.29473 1.8639,0.44059 3.82774,0.46117 5.69679,0.043 2.17921,-0.48757 4.22942,-1.61831 5.70116,-3.29778 1.47175,-1.67948 2.25701,-3.83649 2.90181,-5.97446 5.72735,-18.99031 11.5471,-37.95275 17.45898,-56.88642 6.62839,-21.22842 13.37256,-42.42057 19.9893,-63.65263 15.73849,-50.5023 30.75474,-101.22618 46.05113,-151.86414 7.85435,-26.00144 15.78266,-51.98054 23.7848,-77.93688 0.13291,-0.43111 0.30631,-0.84848 0.506,-1.25301 3.37004,-6.82687 6.93087,-13.56977 10.9992,-20.00499 20.5295,-32.47322 54.52535,-56.35816 92.2365,-63.69571 41.95734,-8.16375 86.74888,4.34682 120.6947,30.32271 24.87429,19.03421 44.12562,44.70106 58.7026,72.42367 13.36703,25.42151 22.9987,52.68158 30.3635,80.44289 10.04934,37.88058 15.94364,76.86659 17.4589,116.0282 1.60401,41.45525 -1.7198,83.20184 -11.3862,123.54625 -8.8503,36.93827 -23.01202,72.6075 -42.0028,105.503 -22.2757,38.58558 -51.06752,73.18422 -83.2464,103.99937 -10.48594,10.04155 -21.34321,19.70019 -32.6407,28.8191 -39.20956,31.6485 -83.71627,56.70096 -131.0689,73.92727 -57.91785,21.0698 -120.17757,30.37918 -181.67457,26.31309 -46.68205,-3.08655 -92.83712,-13.84097 -136.12938,-31.5757 -45.468426,-18.6262 -87.724145,-44.91715 -124.996168,-76.93448 -18.296441,-15.71697 -35.411189,-32.81211 -51.111791,-51.12259 -38.871751,-45.33333 -68.979121,-98.19807 -87.800931,-154.87137 -17.45105,-52.54588 -25.18939,-108.36561 -22.0135,-163.64239 3.4401,-59.87542 19.7018,-118.91547 46.8103,-172.41341 20.65769,-40.76744 47.540889,-78.31333 78.944931,-111.51741 37.027117,-39.14946 80.591329,-72.42724 129.297659,-95.47894 28.859595,-13.65865 59.36841,-23.67662 90.45771,-30.94921 22.73422,-5.318122 45.79257,-9.179918 68.95032,-12.154144 14.63866,-1.880092 29.66237,-3.388698 44.02698,0 6.75383,1.593269 13.24584,4.255745 19.23018,7.76862 9.01445,5.291584 16.96928,12.647124 22.0135,21.802284 4.51743,8.19904 6.58938,17.73543 5.81969,27.0649 -0.84726,10.26967 -5.16583,20.23583 -12.14541,27.81669 -6.01218,6.53011 -13.93927,11.25926 -22.51955,13.53246 -3.07105,0.81362 -6.21503,1.31885 -9.36206,1.7542 -4.45616,0.61645 -8.93049,1.09538 -13.41053,1.5036 -5.73348,0.52244 -11.47744,0.92922 -17.20595,1.50361 -10.76447,1.07934 -21.46059,2.74908 -32.13463,4.51081 -7.91671,1.30663 -15.82498,2.66435 -23.72417,4.07303 z"
     style="fill:#003964;fill-opacity:1;stroke:none;stroke-width:2.61884;stroke-linecap:butt;stroke-linejoin:miter;stroke-miterlimit:4;stroke-dasharray:none;stroke-opacity:1"
     inkscape:export-filename="C:\Users\q001\Documents\QMETHODS\QGIT\versio.io\www\img\logofavicon-16x16.png"
     inkscape:export-xdpi="3.3599999"
     inkscape:export-ydpi="3.3599999" />
</svg>
